<svg xmlns="http://www.w3.org/2000/svg" xmlns:xlink="http://www.w3.org/1999/xlink" fill="none" version="1.1" width="14" height="14" viewBox="0 0 14 14"><g style="mix-blend-mode:passthrough"><g style="opacity:0.009999999776482582;"><rect x="0" y="0" width="14" height="14" rx="0" fill="#F8F8F8" fill-opacity="1"/></g><g style="mix-blend-mode:passthrough"><path d="M7,0C3.13385,0,0,3.13385,0,7C0,10.8662,3.13385,14,7,14C10.8662,14,14,10.8662,14,7C14,3.13385,10.8662,0,7,0C7,0,7,0,7,0Z" fill-rule="evenodd" fill="#0000C9" fill-opacity="1"/></g><g style="mix-blend-mode:passthrough"><path d="M5.458267,6.87055C5.13037,6.6174599999999995,4.659384,6.6781,4.40629,7.006C4.153196,7.33389,4.213836,7.80488,4.541733,8.057970000000001C4.541733,8.057970000000001,5.458267,6.87055,5.458267,6.87055C5.458267,6.87055,5.458267,6.87055,5.458267,6.87055ZM6.98963,9C6.98963,9,6.53136,9.59371,6.53136,9.59371C6.69008,9.71622,6.89124,9.77008,7.08994,9.74326C7.2886299999999995,9.71645,7.46832,9.61119,7.58888,9.450990000000001C7.58888,9.450990000000001,6.98963,9,6.98963,9C6.98963,9,6.98963,9,6.98963,9ZM10.59925,5.450994C10.84833,5.120035,10.78195,4.649823,10.450990000000001,4.400746C10.12004,4.15167,9.64982,4.218048,9.40075,4.549006C9.40075,4.549006,10.59925,5.450994,10.59925,5.450994C10.59925,5.450994,10.59925,5.450994,10.59925,5.450994ZM4.541733,8.057970000000001C4.541733,8.057970000000001,6.53136,9.59371,6.53136,9.59371C6.53136,9.59371,7.447900000000001,8.40629,7.447900000000001,8.40629C7.447900000000001,8.40629,5.458267,6.87055,5.458267,6.87055C5.458267,6.87055,4.541733,8.057970000000001,4.541733,8.057970000000001C4.541733,8.057970000000001,4.541733,8.057970000000001,4.541733,8.057970000000001ZM7.58888,9.450990000000001C7.58888,9.450990000000001,10.59925,5.450994,10.59925,5.450994C10.59925,5.450994,9.40075,4.549006,9.40075,4.549006C9.40075,4.549006,6.39038,8.549009999999999,6.39038,8.549009999999999C6.39038,8.549009999999999,7.58888,9.450990000000001,7.58888,9.450990000000001C7.58888,9.450990000000001,7.58888,9.450990000000001,7.58888,9.450990000000001Z" fill="#FFFFFF" fill-opacity="1"/></g></g></svg>